HIERARCHY
ROOT Spine
{
    OFFSET 0.0 0.0 -0.0
    CHANNELS 6 Xposition Yposition Zposition Zrotation Xrotation Yrotation
    JOINT ShoulderCenter
    {
        OFFSET 0.0 0.2316848188638687 0.0
        CHANNELS 3 Zrotation Xrotation Yrotation
        JOINT LeftShoulder
        {
            OFFSET 0.17892798781394958 0.0 0.0
            CHANNELS 3 Zrotation Xrotation Yrotation
            JOINT LeftElbow
            {
                OFFSET 0.2516559362411499 0.0 0.0
                CHANNELS 3 Zrotation Xrotation Yrotation
                JOINT LeftHand
                {
                    OFFSET 0.283211886882782 0.0 0.0
                    CHANNELS 3 Zrotation Xrotation Yrotation
                    End Site
                    {
                        OFFSET 0.11328474432229996 0.0 0.0
                    }
                }
            }
        }
        JOINT RightShoulder
        {
            OFFSET -0.17892798781394958 0.0 0.0
            CHANNELS 3 Zrotation Xrotation Yrotation
            JOINT RightElbow
            {
                OFFSET -0.2516559362411499 0.0 0.0
                CHANNELS 3 Zrotation Xrotation Yrotation
                JOINT RightHand
                {
                    OFFSET -0.283211886882782 0.0 0.0
                    CHANNELS 3 Zrotation Xrotation Yrotation
                    End Site
                    {
                        OFFSET -0.11328474432229996 0.0 0.0
                    }
                }
            }
        }
        End Site
        {
            OFFSET 0.0 0.09267392754554749 0.0
        }
    }
    JOINT LeftHip
    {
        OFFSET 0.2247714401118417 -0.2247714401118417 0.0
        CHANNELS 3 Zrotation Xrotation Yrotation
        JOINT LeftKnee
        {
            OFFSET 0.0 -0.37568897008895874 0.0
            CHANNELS 3 Zrotation Xrotation Yrotation
            JOINT LeftFoot
            {
                OFFSET 0.0 -0.44910937547683716 0.0
                CHANNELS 3 Zrotation Xrotation Yrotation
                End Site
                {
                    OFFSET 0.0 0.0 0.17964375019073486
                }
            }
        }
    }
    JOINT RightHip
    {
        OFFSET -0.2247714401118417 -0.2247714401118417 0.0
        CHANNELS 3 Zrotation Xrotation Yrotation
        JOINT RightKnee
        {
            OFFSET 0.0 -0.37568897008895874 0.0
            CHANNELS 3 Zrotation Xrotation Yrotation
            JOINT RightFoot
            {
                OFFSET 0.0 -0.44910937547683716 0.0
                CHANNELS 3 Zrotation Xrotation Yrotation
                End Site
                {
                    OFFSET 0.0 0.0 0.17964375019073486
                }
            }
        }
    }
}
MOTION
Frames: 11
Frame Time: 0.03333333333333333
-0.31104061007499695 0.3145664930343628 3.4597909450531006 -4.14727422490816 -13.319338469671845 -158.2034407288079 -5.5364001128757567e-08 -7.755633294466151e-07 8.137219684500058 95.20471530641525 -62.43253461122852 178.31065205049862 -5.628264181264723e-06 3.1827176037872668e-06 13.015151633791533 -6.361109362927033e-15 1.7655625192200634e-31 -3.1805546814635164e-15 -110.42337313631997 -50.474415632292974 179.73539516630467 3.2336187424894286e-06 -9.48598908126292e-07 -15.138799281060999 6.3611093629270335e-15 -3.1805546814635168e-15 1.7655625192200634e-31 -4.456816347536525 8.339687521235865 -46.60762526884831 -4.979618357681236 -10.472839237376109 20.53306753183561 -5.093857107031414e-16 8.836433506838697e-34 -1.987846675914698e-16 -18.99804947650496 -13.347680099519224 -101.56714594633573 -16.61983282229253 6.53604019236917 147.84279607827483 -7.95138670365879e-16 -4.689775441678294e-32 6.758678698109972e-15
-0.3110683858394623 0.3145884871482849 3.4597949981689453 -4.161752238749203 -13.326375717195509 -158.19759883699058 2.2067181006569175e-07 -7.493814069257717e-08 8.120787011625396 95.72579574686736 -59.68437431740649 179.2118271101015 -7.376435261783134e-06 2.9709493395974244e-06 15.20227224039311 0.0 0.0 0.0 -110.41052512789028 -43.15950905942995 179.74308123746255 -1.8219667989150625e-07 -2.19327992583013e-06 -16.070520011168107 -1.272221872585407e-14 6.361109362927035e-15 3.1805546814635183e-15 -4.529644286082874 8.320536568337756 -46.33114859204493 -5.212736524143167 -11.212765187259318 21.567508636985327 -7.081703782946111e-16 0.0 0.0 -19.06499200161098 -13.341753176137477 -102.41660978887553 -28.124000464529463 13.04486262014362 150.5077086433939 -1.5902773407317584e-15 -1.1034765745125397e-31 7.951386703658792e-15
-0.31100720167160034 0.31469011306762695 3.4598560333251953 -4.201789213043078 -13.313944113812088 -158.17197719963195 -7.26850094453866e-07 -5.434471297466854e-08 8.033885305801613 95.58303870145633 -59.932559117007585 179.1867776177975 -3.527187576946933e-06 3.711704649485787e-06 15.041989011968441 0.0 -3.1805546814635168e-15 0.0 -110.44601736873173 -43.55853705419879 179.73310570694488 -5.754975074674744e-07 5.999192806135826e-06 -15.805501601117967 0.0 3.1805546814635168e-15 0.0 -4.5248911398594105 8.34224061295644 -46.380444783076626 -2.3612753959208583 -12.326182596676182 26.335772641271774 -5.963540027744094e-16 -1.5902773407317584e-15 3.975693351829396e-16 -18.99764592465426 -13.150708264510333 -101.9401523358397 -6.5843630096273165 11.772069162654715 91.96394432016776 -4.472655020808071e-16 3.975693351829396e-16 4.4478069373591364e-15
-0.31069010496139526 0.3144040107727051 3.458359956741333 -4.209840645281182 -13.343009847175741 -158.65601764176145 2.57119825362907e-07 -1.797652709313856e-07 8.156137166609682 95.55510363183552 -58.10716908040625 179.74580655456333 -3.852048699130219e-06 -5.651606860656134e-06 14.66688211218086 0.0 0.0 0.0 -110.45148176842704 -38.0116144586633 179.63547548976393 2.408793714229232e-07 -2.529819717678132e-06 -16.07137977445018 0.0 -3.1805546814635164e-15 0.0 -4.4458607369286485 8.436364836437244 -46.80441617523908 -1.3778403528535361 -12.53570372124878 27.74712370512935 4.472655020808071e-16 0.0 0.0 -18.93075317460102 -13.388313527141454 -101.75519394611183 -6.34520689479247 11.635909015780886 89.95533088094759 -1.4908850069360235e-16 -4.606799175821394e-34 3.540851891473056e-16
-0.3106513023376465 0.31436771154403687 3.4583699703216553 -4.228418018172366 -13.346260383273034 -158.65216962706887 -3.847366069127006e-07 2.2218607134584832e-08 8.086786832438966 95.51324967246082 -58.520407826368796 179.8390486224503 3.6898385961246287e-06 6.978391325064238e-07 14.026630643427168 0.0 0.0 -4.770832022195275e-15 -110.47040573861058 -42.59723471816325 179.492737331005 -2.0291814612148037e-06 -1.4887627960570627e-06 -15.862496603004745 6.3611093629270335e-15 -3.1805546814635168e-15 3.1805546814635168e-15 -4.499187346328713 8.427578697025456 -46.70218596806305 -1.7513757349623122 -12.541788119196282 27.30378306157109 1.4908850069360232e-16 -1.5902773407317582e-15 -3.9756933518293955e-16 -18.966043204163892 -13.397278332551222 -101.90861996367242 -26.1261049941408 12.798263104392007 148.3363579584004 -1.5902773407317588e-15 1.1586504032381667e-31 -8.348956038841733e-15
-0.31042030453681946 0.3143850862979889 3.4585890769958496 -4.337744961320602 -13.327050018360238 -158.63754289285055 -7.014990167156462e-08 -1.880857449237519e-07 8.11066906681771 95.23678979203505 -60.885534402924655 179.910051130858 1.635720037633731e-06 -4.844466187634215e-07 12.900772687577108 -6.3611093629270335e-15 1.7655625192200634e-31 -3.1805546814635168e-15 -110.56107133349364 -44.79246215706618 179.48215448676686 4.237051198125479e-06 8.485685384329802e-07 -15.024999377946855 0.0 -3.1805546814635164e-15 0.0 -4.727489060715679 8.686097904028031 -46.72428993360821 -4.573964994969122 -12.121619833203788 23.36560054162738 -1.7393658414253607e-16 0.0 0.0 -19.080189478214287 -13.305780420896623 -102.53951772355111 -6.612706004263216 11.541032097211982 91.42148187694556 -4.969616689786745e-17 -9.69852458067662e-35 2.2363275104040355e-16
-0.30993878841400146 0.31456100940704346 3.458754062652588 -4.3677341993378915 -13.258518089830782 -158.60886179610415 -5.214990945309149e-07 8.995350230030692e-07 8.245328947078237 94.91042617511552 -60.59304262972815 179.64043268761492 -4.077992024033834e-06 1.6798733959155481e-06 12.83982350472156 6.3611093629270335e-15 -6.3611093629270335e-15 3.531125038440127e-31 -110.46456133541686 -43.11053478213823 179.75043258761124 -4.422046008775095e-06 2.6071100359921603e-06 -15.156130895534885 0.0 0.0 0.0 -4.703016366279631 8.792268690504576 -46.92998734535111 -4.885908167478612 -11.910440107951867 22.689642044389036 1.7642139248742944e-15 0.0 0.0 -19.072482343540965 -13.195223349889327 -102.67765043724596 -6.74475480820046 11.49286383339069 92.51771522427332 4.969616689786745e-16 3.975693351829396e-16 7.516545243302451e-16
-0.30963170528411865 0.3143394887447357 3.4589500427246094 -4.4138826084118525 -13.306828385555495 -158.61016283980248 1.0121091784594147e-07 8.584033140835072e-07 8.262885192587001 94.82881325450502 -62.83573634869815 179.68447314776816 -1.230035617666158e-06 2.8751965804889935e-08 12.19206900311767 -6.3611093629270335e-15 3.1805546814635168e-15 3.1805546814635168e-15 -110.5405598126954 -43.37171451620858 179.61722749736785 3.0104983795584645e-06 -1.5794760112030204e-07 -14.897415988428488 0.0 0.0 0.0 -4.766072304346905 8.706406497567682 -46.69772078946088 -5.041397261464525 -11.776619103784947 22.359105328493104 9.93923337957349e-17 1.7241821476758432e-34 1.987846675914698e-16 -19.173818486111863 -13.27638481137087 -103.35326113355553 -6.923622620493463 11.495070792533774 92.89265945499079 -4.969616689786745e-17 8.998075583183307e-34 -2.074814967985966e-15
-0.3081226944923401 0.315166711807251 3.459779977798462 -4.378516868157225 -13.166169310254638 -158.1695544282062 5.735161534056116e-07 1.1078758128359016e-06 8.17234387104839 95.08237341519458 -65.63882237009935 -179.68687803331224 1.7939775645644586e-06 -7.228663374982633e-06 11.200658917256408 1.2722218725854067e-14 3.1805546814635168e-15 1.590277340731758e-15 -110.45166439149027 -47.966343522256736 179.64338239851523 1.5158138980387098e-06 -1.1857612432841186e-06 -14.127049756760025 0.0 0.0 9.541664044390547e-15 -4.290384581369927 8.708747148974265 -47.69367559401666 -4.784524021240963 -11.699364096927521 22.80960497617741 -7.64078566054712e-16 -1.3254650260258044e-33 1.987846675914698e-16 -18.979647319917024 -12.84479652747874 -102.16635384552995 -6.649836188992143 11.782748587753996 93.49471603256178 5.46657835876542e-16 1.724720954596992e-32 3.615396141819857e-15
-0.30738648772239685 0.31493058800697327 3.459984064102173 -4.362680045212384 -13.063081355920731 -158.05736535108977 -4.067455029779363e-07 5.41629636512061e-07 8.054038419696495 94.5436291706588 -64.88834843476648 179.67419753469272 6.972951080307168e-07 -4.952455276497955e-07 11.462055019278978 0.0 -3.180554681463516e-15 0.0 -110.29073912146615 -44.71493588073092 179.70325499023454 2.0790311082640957e-06 5.947234841391126e-06 -14.231526786984421 -6.3611093629270335e-15 0.0 0.0 -3.9798486040512775 8.889337019286238 -48.65556602456995 -4.375901404315593 -12.33782600372837 24.37349555027285 3.3544912656060527e-16 -5.819114748405971e-34 -1.987846675914698e-16 -18.744950562382012 -12.691817799600011 -98.99493451443915 -5.939396850436325 11.84319606365222 91.0120453894979 5.963540027744093e-16 1.2931366107568823e-33 2.484808344893372e-16
-0.30728259682655334 0.31468209624290466 3.459542989730835 -4.383862911590977 -13.108025487095082 -158.25468702640384 -3.013218423159901e-07 1.1919188567917339e-07 8.1467969169873 94.32165382679031 -64.11528559815616 179.63753817420314 -1.2777711643320514e-06 3.4398749850648942e-06 11.367106480616354 0.0 0.0 1.5902773407317584e-15 -110.33888945765241 -44.46284499060257 179.7386659726834 -3.027105341820923e-06 -3.86341256186941e-06 -14.655401809172101 6.361109362927035e-15 0.0 0.0 -4.234382367779763 8.594733699913892 -47.670237589217884 -4.988958949824913 -11.401061582288985 22.187248452975208 6.5536820096562695e-16 0.0 0.0 -18.814853115843786 -12.802496449957506 -99.73986563019594 -5.948568465112131 11.873317416318843 90.69969777715069 4.969616689786745e-17 1.9666452621927585e-34 4.534775229430404e-16
